<svg xmlns="http://www.w3.org/2000/svg" xmlns:xlink="http://www.w3.org/1999/xlink" xmlns:svgjs="http://svgjs.com/svgjs" width="155" height="32" version="1.1" style=""><rect id="backgroundrect" width="100%" height="100%" x="0" y="0" fill="none" stroke="none" class="" style=""/><defs id="SvgjsDefs1007"/><g class="currentLayer" style=""><title>Layer 1</title><path id="SvgjsPath1008" d="M39.98662621977017,12.914875376269904 C39.76648833392722,8.708644255195054 35.99150553442478,5.555186186712156 31.779719169637758,5.555186186712156 H31.129027690032576 C27.46098884769043,5.555186186712156 23.889477343304662,4.426719029415367 20.869352215446657,2.3440894880411776 C17.953393279627903,0.33298740340640637 14.199938159813577,-0.5461753172937346 10.22981736055761,0.3510428779231562 C8.979128614806344,0.6329860569154635 -0.005552669219144144,3.2107522648451052 0.0000028610229492187517,13.332929055465392 C0.0027806261439959016,18.259990274555058 2.6861017330750894,22.555109885558522 6.6659447102547205,24.86134953440937 V29.99952091707948 C6.6659447102547205,30.61340705064893 7.163164666922076,31.110627041187087 7.777050758673392,31.110627041187087 H8.888156807092063 C9.50204289884338,31.110627041187087 9.999262855510738,30.61340705064893 9.999262855510738,29.99952091707948 V26.231482273699555 C11.065924661992664,26.506481039416187 12.179808475532381,26.666202544756658 13.332581000766753,26.666202544756658 C13.710357057229103,26.666202544756658 14.074244288086218,26.615508327844253 14.443687049185426,26.584258468103727 V29.99952091707948 C14.443687049185426,30.61340705064893 14.94090700585278,31.110627041187087 15.554793097604097,31.110627041187087 H16.66589914602277 C17.27978523777409,31.110627041187087 17.777005194441443,30.61340705064893 17.777005194441443,29.99952091707948 V25.87245610734729 C18.76588957753406,25.521068795598254 19.713107483810976,25.081487435248192 20.57838131901702,24.517601077263578 C23.754755734933898,22.44747147978559 27.35126712540909,21.110671924218636 31.1429165156378,21.110671924218636 C32.91235289774454,21.110671924218636 32.25471700533674,21.089144243064048 32.74360366664096,21.056505500668393 L37.910941233068044,30.531462973995993 C38.10955143922288,30.89465578831367 38.48732749568522,31.110627041187087 38.88663123183568,31.110627041187087 C38.977603039549955,31.110627041187087 39.06996372982476,31.099515979946005 39.160935537539046,31.075904974808722 C39.65329440524457,30.950905535846616 39.997737280254356,30.50715752753114 39.997737280254356,29.99952091707948 C39.997737280254356,29.99952091707948 40.00745945817801,13.316262463603778 39.98662621977017,12.914875376269904 zM32.21999494132366,14.999588241626803 C31.299860244976948,14.999588241626803 30.553335868695655,14.253063814492002 30.553335868695655,13.332929055465392 C30.553335868695655,12.412099855111215 31.299860244976948,11.666269869303989 32.21999494132366,11.666269869303989 S33.88665401395167,12.412099855111215 33.88665401395167,13.332929055465392 C33.88665401395167,14.253063814492002 33.14012963767038,14.999588241626803 32.21999494132366,14.999588241626803 zM37.775525183417024,25.641901586594955 L35.007482240294,20.56692436473348 C36.05747745604965,20.16206507076177 37.00261203848578,19.553040026485284 37.775525183417024,18.762765795713747 V25.641901586594955 z" fill="#a26bf6" class=""/><path id="SvgjsPath1009" d="M50.55614693481256,31.442801167793025 C50.92690965067229,31.813563883652762 51.34710739531333,31.98658648438731 51.81674016873567,31.961868969996654 L63.90360470576315,31.183267266691207 C64.34851996479483,31.15854975230056 64.7316414378499,30.948450879980037 65.07768663931898,30.565329406924974 C65.39901432639743,30.194566691065237 65.57203692713198,29.774368946424197 65.57203692713198,29.329453687392512 C65.57203692713198,28.785668370798227 65.39901432639743,28.353111868961868 65.05296912492834,28.007066667492776 C64.70692392345926,27.673380223219013 64.27436742162288,27.525075136875117 63.75529961941926,27.549792651265765 L53.670553748034365,28.217165539813298 L53.670553748034365,8.566741599247145 C53.670553748034365,8.07239131143416 53.49753114729982,7.652193566793122 53.139127188635406,7.293789608128708 C52.768364472775666,6.923026892268968 52.34816672813463,6.750004291534424 51.853816440321644,6.750004291534424 C51.33474863811801,6.750004291534424 50.90219213628165,6.923026892268968 50.54378817761723,7.293789608128708 C50.1730254617575,7.652193566793122 50.00000286102295,8.07239131143416 50.00000286102295,8.566741599247145 L50.00000286102295,30.18220793386991 C50.00000286102295,30.651840707292248 50.18538421895282,31.072038451933285 50.55614693481256,31.442801167793025 zM72.10981948345871,30.874298336808096 C73.5187178037257,31.61582376852757 75.08827996753195,31.99894524158263 76.84322348926804,31.99894524158263 C77.9802291512379,31.99894524158263 79.11723481320776,31.72705258328549 80.26659923237295,31.207984781081855 C81.41596365153815,30.676558221682896 82.3428704411875,30.02154409033069 83.03496084412566,29.255301144220567 C83.33157101681346,28.909255942751475 83.47987610315735,28.538493226891735 83.47987610315735,28.14301299664135 C83.47987610315735,27.673380223219013 83.30685350242281,27.277899992968624 82.97316705814904,26.956572305890187 C82.63948061387529,26.635244618811743 82.23164162642956,26.474580775272525 81.73729133861659,26.474580775272525 C81.31709359397554,26.474580775272525 80.90925460652984,26.67232089039772 80.51377437627946,27.067801120648106 C79.50035628626283,28.130654239446027 78.27683932392569,28.662080798844986 76.84322348926804,28.662080798844986 C75.75565285607946,28.662080798844986 74.77931103764882,28.451981926524464 73.88948051958545,28.031784181883427 C73.0120087587174,27.61158643724239 72.40642965614649,27.018366091866806 72.0603844546774,26.252123145756684 L81.9968252397184,20.542377321516707 C82.36758795557814,20.319919692000866 82.65183937107062,20.060385790899048 82.84957948619581,19.763775618211255 C83.04731960132099,19.467165445523463 83.1461896588836,19.15819651564035 83.1461896588836,18.836868828561908 C83.1461896588836,18.16949594001438 82.87429700058645,17.415611751099576 82.33051168399217,16.5752162618175 C81.78672636739788,15.734820772535425 80.97104839250646,15.005654098011272 79.90819527370854,14.41243375263569 C78.82062464051998,13.806854650064786 77.53531389220622,13.497885720181669 76.02754551437661,13.497885720181669 C74.39618956459375,13.497885720181669 72.93785621554545,13.93044222201803 71.66490422442702,14.795555225690753 C70.40431099050392,15.660668229363479 69.4032516576826,16.81003264852867 68.69880249754911,18.231289725990997 C67.9943533374156,19.640188046258007 67.64830813594651,21.135597666892288 67.64830813594651,22.692801073503187 C67.64830813594651,24.59604968158318 68.0437883661969,26.239764388561362 68.83474882669768,27.648662708828365 C69.62570928719845,29.045202271900045 70.71327992038702,30.12041414789329 72.10981948345871,30.874298336808096 zM78.21504553794907,17.217871635974383 C78.75883085454335,17.489764294271524 79.17902859918439,17.872885767326586 79.47563877187218,18.391953569530223 L71.02224885027013,23.17479260412085 C71.02224885027013,22.655724801917216 71.04696636466079,22.21080954288553 71.09640139344208,21.84004682702579 C71.24470647978598,20.431148506758785 71.78849179638026,19.24470781600762 72.74011610042025,18.280724754772297 C73.70409916165558,17.31674169353698 74.87818109521142,16.834750162919317 76.28707941547843,16.834750162919317 C77.0286048471979,16.834750162919317 77.67126022135479,16.970696492067887 78.21504553794907,17.217871635974383 zM87.57062473480981,31.479877439379 C87.94138745066955,31.825922640848088 88.34922643811527,31.99894524158263 88.81885921153759,31.99894524158263 C89.36264452813188,31.99894524158263 89.79520102996824,31.825922640848088 90.10416995985136,31.479877439379 C90.40078013253915,31.13383223790991 90.56144397607837,30.688916978878225 90.56144397607837,30.145131662283937 L90.56144397607837,27.030724849062132 C90.56144397607837,25.671261557576422 90.67267279083629,24.50953838121591 90.89513042035213,23.54555531998059 C91.11758804986798,22.581572258745265 91.51306828011838,21.5928716831193 92.0815711111033,20.579453593102684 C92.72422648526017,19.417730416742167 93.41631688819837,18.515541141483467 94.15784231991783,17.897603281717235 C94.8993677516373,17.26730666475568 95.64089318335678,16.945978977677242 96.38241861507626,16.945978977677242 C96.97563896045185,16.945978977677242 97.4452717338742,17.143719092802435 97.79131693534327,17.514481808662175 C98.13736213681237,17.897603281717235 98.39689603791417,18.614411199046067 98.56991863864872,19.652546803453333 C98.74294123938327,20.690682407860603 98.82945253975055,22.173733271299554 98.82945253975055,24.101699393770197 L98.82945253975055,30.25636047704186 C98.82945253975055,30.701275736073548 99.00247514048509,31.096755966323933 99.3608790991495,31.467518682183673 C99.73164181500924,31.825922640848088 100.13948080245495,31.99894524158263 100.60911357587729,31.99894524158263 C101.10346386369028,31.99894524158263 101.51130285113598,31.825922640848088 101.83263053821443,31.467518682183673 C102.15395822529287,31.096755966323933 102.31462206883208,30.688916978878225 102.31462206883208,30.219284205455885 L102.35169834041807,23.730936677910456 C102.35169834041807,21.135597666892288 102.16631698248818,19.10876148685905 101.79555426662844,17.625710623420094 C101.42479155076872,16.155018517176465 100.83157120539315,15.10452415557387 100.0158932305017,14.461868781416989 C99.20021525561029,13.81921340726011 98.1002858652264,13.497885720181669 96.71610505935003,13.497885720181669 C95.45551182542692,13.497885720181669 94.29378864906641,13.893365950432056 93.23093553026848,14.671967653737509 C92.16808241147058,15.450569357042959 91.29061065060252,16.5752162618175 90.59852024766434,18.058267125256457 L90.59852024766434,15.24047048472244 C90.59852024766434,14.746120196909457 90.4254976469298,14.325922452268419 90.10416995985136,13.97987725079933 C89.75812475838228,13.63383204933024 89.36264452813188,13.460809448595695 88.89301175470953,13.460809448595695 C88.39866146689656,13.460809448595695 87.9661049650602,13.63383204933024 87.59534224920046,13.97987725079933 C87.22457953334072,14.325922452268419 87.03919817541086,14.746120196909457 87.03919817541086,15.24047048472244 L87.03919817541086,30.293436748627833 C87.03919817541086,30.738352007659522 87.21222077614539,31.13383223790991 87.57062473480981,31.479877439379 zM109.98941028712868,30.92373336558939 C111.22528600666115,31.640541282918218 112.58474929814685,31.99894524158263 114.06780016158581,31.99894524158263 C115.52613351063411,31.99894524158263 116.87323804492449,31.65290004011354 118.10911376445696,30.985527151566014 C119.34498948398942,30.305795505823156 120.32133130242006,29.477758773736408 121.03813921974889,28.513775712501086 C121.31003187804603,28.167730511031994 121.44597820719461,27.74753276639096 121.44597820719461,27.253182478577976 C121.44597820719461,26.83298473393694 121.27295560646007,26.4622220180772 120.92691040499098,26.128535573803436 C120.58086520352188,25.79484912952967 120.17302621607618,25.621826528795125 119.70339344265383,25.621826528795125 C119.11017309727826,25.621826528795125 118.5787465378793,25.93079545867824 118.10911376445696,26.54873331844447 C117.61476347664397,27.19138869260135 117.04626064565905,27.69809773760966 116.41596402869749,28.0688604534694 C115.78566741173593,28.439623169329142 114.98234819403983,28.62500452725901 113.99364761841386,28.62500452725901 C113.22740467230372,28.62500452725901 112.49823799777958,28.427264412133812 111.8061475948414,28.044142939078753 C111.11405719190321,27.673380223219013 110.55791311811362,27.117236149429406 110.11299785908193,26.375710717709925 C109.68044135724557,25.646544043185774 109.47034248492504,24.793789796708378 109.47034248492504,23.805089221082408 C109.47034248492504,22.66808355911254 109.70515887163621,21.555795411533325 110.18715040225388,20.492942292735407 C110.66914193287154,19.417730416742167 111.2994385498331,18.540258655874112 112.07804025313854,17.872885767326586 C112.856641956444,17.205512878779057 113.63524365974945,16.87182643450529 114.40148660585957,16.87182643450529 C115.0688594944071,16.87182643450529 115.60028605380606,16.99541400645854 116.00812504125176,17.24258915036503 C116.41596402869749,17.489764294271524 116.83616177333852,17.848168252935935 117.25635951797956,18.31780102635827 C117.50353466188605,18.614411199046067 117.71363353420656,18.81215131417126 117.89901489213644,18.911021371733852 C118.08439625006632,19.009891429296452 118.34393015116812,19.05932645807775 118.66525783824657,19.05932645807775 C119.15960812605955,19.05932645807775 119.57980587070058,18.89866261453853 119.92585107216968,18.55261741306944 C120.27189627363877,18.231289725990997 120.44491887437331,17.82345073854529 120.44491887437331,17.35381796512295 C120.44491887437331,16.884185191700617 120.25953751644344,16.451628689864254 119.8887748005837,16.056148459613865 C119.12253185447358,15.166317941550494 118.34393015116812,14.523662567393611 117.5282521762767,14.1158235799479 C116.7249329585806,13.70798459250219 115.674438596978,13.497885720181669 114.36441033427359,13.497885720181669 C112.93079449961594,13.497885720181669 111.57133120813023,14.004594765189978 110.28602045981648,15.018012855206598 C109.00070971150271,16.031430945223214 107.96257410709543,17.341459207927628 107.17161364659466,18.94809764331983 C106.38065318609388,20.554736078712033 105.9851729558435,22.198450785690206 105.9851729558435,23.879241764254353 C105.9851729558435,25.362292627693307 106.34357691450792,26.721755919179017 107.06038483183676,27.982349153102128 C107.77719274916558,29.23058362982992 108.7535345675962,30.206925448260563 109.98941028712868,30.92373336558939 zM126.20409972739458,31.047320937542636 C127.25459408899718,31.689976311699517 128.50282856572497,31.99894524158263 129.93644440038264,31.99894524158263 C131.24647266308705,31.99894524158263 132.39583708225223,31.72705258328549 133.3968964150735,31.183267266691207 C134.41031450509013,30.639481950096922 135.17655745120027,29.935032789963422 135.7450602821852,29.05756102909537 C136.3012043559748,28.167730511031994 136.57309701427195,27.265541235773302 136.57309701427195,26.32627568892863 C136.57309701427195,24.94209488305227 136.17761678402155,23.86688300705903 135.37429756632545,23.1006400609489 C134.55861959143402,22.334397114838776 133.1373625139717,21.629947954705273 131.08580881954782,20.98729258054839 C129.67691049928078,20.542377321516707 128.70056868085015,20.146897091266318 128.1567833642559,19.788493132601907 C127.61299804766159,19.417730416742167 127.34110538936444,18.960456400515152 127.34110538936444,18.391953569530223 C127.34110538936444,17.848168252935935 127.61299804766159,17.415611751099576 128.13206584986523,17.09428406402113 C128.6634924092642,16.772956376942695 129.49152914135095,16.612292533403476 130.60381728893014,16.612292533403476 C131.49364780699352,16.612292533403476 132.14866193834573,16.748238862552043 132.5935771973774,17.020131520849187 C133.0261336992138,17.292024179146328 133.2362325715343,17.650428137810742 133.2362325715343,18.09534339684243 C133.2362325715343,18.194213454405027 133.21151505714363,18.34251854074892 133.1373625139717,18.515541141483467 C133.07556872799506,18.71328125660866 133.05085121360443,18.861586342952556 133.05085121360443,18.9851739149058 C133.05085121360443,19.35593663076554 133.21151505714363,19.70198183223463 133.53284274422208,20.02330951931307 C133.85417043130053,20.34463720639151 134.27436817594156,20.50530104993073 134.7934359781452,20.50530104993073 C135.3866563235208,20.50530104993073 135.84393033974777,20.295202177610214 136.16525802682622,19.8873631901645 C136.48658571390467,19.47952420271879 136.6472495574439,18.89866261453853 136.6472495574439,18.132419668428405 C136.6472495574439,16.7235213481614 136.10346424084963,15.598874443386855 135.02825236485637,14.758478954104781 C133.96539924605844,13.918083464822708 132.45763086822885,13.497885720181669 130.5296647457582,13.497885720181669 C128.45339353694368,13.497885720181669 126.83439634435615,13.967518493604004 125.67267316799563,14.894425283253351 C124.51094999163512,15.821332072902699 123.93008840345487,17.00777276365386 123.93008840345487,18.466106112702168 C123.93008840345487,19.850286918578526 124.37500366248653,20.97493382335307 125.26483418054991,21.827688069830465 C126.15466469861329,22.680442316307868 127.61299804766159,23.40960899083202 129.63983422769485,24.027546850598252 C131.02401503357117,24.447744595239286 131.95092182322054,24.83086606829435 132.39583708225223,25.152193755372792 C132.85311109847925,25.485880199646555 133.0879274851904,25.943154215873566 133.0879274851904,26.5116570468585 C133.0879274851904,27.10487739223408 132.81603482689326,27.636303951633035 132.272249510299,28.10593672505538 C131.7284641937047,28.575569498477712 130.97458000478989,28.810385885188882 130.01059694355456,28.810385885188882 C129.09604891110055,28.810385885188882 128.3298059649904,28.587928255673038 127.71186810522418,28.14301299664135 C127.09393024545795,27.69809773760966 126.64901498642627,27.092518635038758 126.37712232812913,26.32627568892863 C126.25353475617588,25.955512973068892 126.0557946410507,25.6589028003811 125.7591844683629,25.43644517086526 C125.47493305287044,25.213987541349415 125.12888785140134,25.102758726591492 124.7086901067603,25.102758726591492 C124.23905733333798,25.102758726591492 123.83121834589225,25.263422570130714 123.48517314442317,25.597109014404477 C123.13912794295408,25.93079545867824 122.96610534221954,26.35099320331928 122.96610534221954,26.845343491132265 C122.96610534221954,27.364411293335902 123.25035675771201,28.044142939078753 123.7941420743063,28.85982091397018 C124.35028614809589,29.687857646056926 125.16596412298732,30.429383077776407 126.20409972739458,31.047320937542636 zM143.6299473728023,30.874298336808096 C145.03884569306933,31.61582376852757 146.60840785687554,31.99894524158263 148.36335137861164,31.99894524158263 C149.50035704058152,31.99894524158263 150.6373627025514,31.72705258328549 151.78672712171655,31.207984781081855 C152.93609154088176,30.676558221682896 153.86299833053113,30.02154409033069 154.5550887334693,29.255301144220567 C154.85169890615708,28.909255942751475 155.00000399250095,28.538493226891735 155.00000399250095,28.14301299664135 C155.00000399250095,27.673380223219013 154.8269813917664,27.277899992968624 154.49329494749264,26.956572305890187 C154.1596085032189,26.635244618811743 153.75176951577316,26.474580775272525 153.2574192279602,26.474580775272525 C152.83722148331913,26.474580775272525 152.42938249587343,26.67232089039772 152.03390226562306,27.067801120648106 C151.02048417560644,28.130654239446027 149.79696721326928,28.662080798844986 148.36335137861164,28.662080798844986 C147.27578074542305,28.662080798844986 146.29943892699242,28.451981926524464 145.40960840892905,28.031784181883427 C144.532136648061,27.61158643724239 143.92655754549008,27.018366091866806 143.580512344021,26.252123145756684 L153.51695312906202,20.542377321516707 C153.88771584492176,20.319919692000866 154.17196726041422,20.060385790899048 154.3697073755394,19.763775618211255 C154.5674474906646,19.467165445523463 154.6663175482272,19.15819651564035 154.6663175482272,18.836868828561908 C154.6663175482272,18.16949594001438 154.39442488993006,17.415611751099576 153.85063957333577,16.5752162618175 C153.3068542567415,15.734820772535425 152.49117628185007,15.005654098011272 151.41596440585684,14.41243375263569 C150.34075252986355,13.806854650064786 149.0554417815498,13.497885720181669 147.54767340372024,13.497885720181669 C145.91631745393738,13.497885720181669 144.45798410488908,13.93044222201803 143.18503211377063,14.795555225690753 C141.92443887984751,15.660668229363479 140.92337954702623,16.81003264852867 140.2189303868927,18.231289725990997 C139.51448122675922,19.640188046258007 139.16843602529013,21.135597666892288 139.16843602529013,22.692801073503187 C139.16843602529013,24.59604968158318 139.5639162555405,26.239764388561362 140.3548767160413,27.648662708828365 C141.14583717654205,29.045202271900045 142.23340780973064,30.12041414789329 143.6299473728023,30.874298336808096 zM149.7351734272927,17.217871635974383 C150.27895874388696,17.489764294271524 150.699156488528,17.872885767326586 150.99576666121578,18.391953569530223 L142.54237673961376,23.17479260412085 C142.54237673961376,22.655724801917216 142.56709425400442,22.21080954288553 142.61652928278568,21.84004682702579 C142.76483436912957,20.431148506758785 143.30861968572387,19.24470781600762 144.26024398976386,18.280724754772297 C145.2242270509992,17.31674169353698 146.39830898455503,16.834750162919317 147.80720730482204,16.834750162919317 C148.5487327365415,16.834750162919317 149.1913881106984,16.970696492067887 149.7351734272927,17.217871635974383 z" fill="#a26bf6" class=""/></g></svg>